<svg version="1.1" id="Layer_1" xmlns:x="ns_extend;" xmlns:i="ns_ai;" xmlns:graph="ns_graphs;" xmlns="http://www.w3.org/2000/svg" xmlns:xlink="http://www.w3.org/1999/xlink" x="0px" y="0px" viewBox="0 0 99.4 100" style="enable-background:new 0 0 99.4 100;" xml:space="preserve">
 <style type="text/css">
  .st0{fill:#00ABE4;}
 </style>
 <metadata>
  <sfw xmlns="ns_sfw;">
   <slices>
   </slices>
   <sliceSourceBounds bottomLeftOrigin="true" height="100" width="99.4" x="-435.8" y="98.4">
   </sliceSourceBounds>
  </sfw>
 </metadata>
 <g>
  <g>
   <g>
    <path class="st0" d="M91.9,32.7l-25-25.2c-3-2.8-6.5-5-10.4-6.3c-8.6-2.9-17.1-0.6-24,6.3L7.5,32.7c-2.8,3-4.9,6.5-6.3,10.4
				c-2.9,8.6-0.6,17.2,6.3,24.1l25.1,25.2c3,2.8,6.5,5,10.3,6.3c2.3,0.8,4.8,1.2,7.3,1.2c6,0,11.8-2.6,16.7-7.5l25.1-25.2
				c2.8-3,4.9-6.5,6.3-10.4C101,48.2,98.8,39.7,91.9,32.7L91.9,32.7z M51.6,14.8c1.9,0.6,3.6,1.6,5.1,2.9l7.4,7.5L49.7,39.8
				L35.3,25.2l7.4-7.5C44.7,15.7,47.5,13.6,51.6,14.8L51.6,14.8z M14.8,48c0.6-1.9,1.6-3.7,2.9-5.2l7.4-7.5L39.6,50L25.1,64.5
				L17.7,57C15.7,55,13.6,52.2,14.8,48L14.8,48z M47.8,85.1c-1.9-0.6-3.6-1.6-5.1-2.9l-7.4-7.4l14.4-14.5l14.4,14.5l-7.4,7.5
				C54.7,84.3,51.9,86.4,47.8,85.1L47.8,85.1z M84.7,52c-0.6,1.9-1.6,3.7-2.9,5.2l-7.4,7.4L59.9,50l14.4-14.5l7.4,7.5
				C83.8,44.9,85.9,47.8,84.7,52">
    </path>
   </g>
  </g>
 </g>
</svg>