<?xml version="1.0" encoding="UTF-8"?>
<svg version="1.1" xmlns="http://www.w3.org/2000/svg" width="65" height="72">
<path d="M0 0 C1.18658203 0.35642578 2.37316406 0.71285156 3.59570312 1.08007812 C5.42584961 1.6456543 5.42584961 1.6456543 7.29296875 2.22265625 C8.53240234 2.59583984 9.77183594 2.96902344 11.04882812 3.35351562 C20.11077822 6.10031098 20.11077822 6.10031098 22.48046875 7.28515625 C23.29374564 26.56283074 19.92780232 46.55929861 6.48046875 61.28515625 C1.40142885 65.94406877 -4.09364637 70.55326229 -11.26953125 70.70703125 C-19.93972175 69.08137053 -26.57933513 62.18439566 -31.51953125 55.28515625 C-39.03494126 43.17699568 -42.76086001 28.60640839 -42.58203125 14.41015625 C-42.57751953 13.72179688 -42.57300781 13.0334375 -42.56835938 12.32421875 C-42.55669461 10.6444929 -42.53876396 8.9648125 -42.51953125 7.28515625 C-35.05518121 4.73431394 -27.57561243 2.2394806 -20.01953125 -0.02734375 C-18.3953125 -0.51654297 -18.3953125 -0.51654297 -16.73828125 -1.015625 C-10.79085754 -2.30760175 -5.78104381 -1.75708943 0 0 Z " fill="#1FC8D7" transform="translate(42.51953125,1.71484375)"/>
<path d="M0 0 C0.89021813 17.40871002 -2.83869699 35.51109707 -13.69921875 49.48046875 C-18.56772029 54.8118499 -24.30699266 59.88800556 -31.5625 61.375 C-38.32576531 61.51992711 -43.57788332 57.30538816 -48.26953125 52.83984375 C-52.20264421 48.58566034 -55.57420479 44.27346786 -58 39 C-57.67 38.01 -57.34 37.02 -57 36 C-56.67 37.32 -56.34 38.64 -56 40 C-49.05631504 35.58618475 -42.56792247 30.65085937 -36.07714844 25.60742188 C-2.98663426 0 -2.98663426 0 0 0 Z " fill="#902ADA" transform="translate(65,11)"/>
<path d="M0 0 C0 11.88 0 23.76 0 36 C-10.02659623 33.99468075 -16.67741698 27.25341981 -22.35546875 19.0390625 C-23.5 17.1875 -23.5 17.1875 -25 14 C-24.67 13.01 -24.34 12.02 -24 11 C-23.67 12.32 -23.34 13.64 -23 15 C-16.59280264 10.87415321 -10.52599876 6.41858908 -4.50390625 1.7578125 C-2 0 -2 0 0 0 Z " fill="#C641E5" transform="translate(32,36)"/>
<path d="M0 0 C-1.7015625 0.7425 -1.7015625 0.7425 -3.4375 1.5 C-6.7440566 3.40377501 -6.92722315 3.73163537 -8 7.6875 C-8.05017621 9.12412403 -8.04874427 10.56332667 -8 12 C-7.98582031 12.680625 -7.97164063 13.36125 -7.95703125 14.0625 C-7.55605946 19.95786907 -5.74911068 25.32198701 -3.83984375 30.88671875 C-2.98157475 34.06830196 -2.84763838 36.72176773 -3 40 C-5.6911901 37.3088099 -6.15804464 34.33343149 -7.0625 30.75 C-7.23587891 30.09386719 -7.40925781 29.43773438 -7.58789062 28.76171875 C-9.31179161 22.11710421 -10.14889017 15.98305025 -10.0625 9.125 C-10.05798828 8.43664063 -10.05347656 7.74828125 -10.04882812 7.0390625 C-10.03716336 5.35933665 -10.01923271 3.67965625 -10 2 C-8.71211992 1.46987262 -7.41953322 0.9511671 -6.125 0.4375 C-5.40570312 0.14746094 -4.68640625 -0.14257812 -3.9453125 -0.44140625 C-2 -1 -2 -1 0 0 Z " fill="#74D2CC" transform="translate(10,7)"/>
<path d="M0 0 C1.18658203 0.35642578 2.37316406 0.71285156 3.59570312 1.08007812 C4.81580078 1.45712891 6.03589844 1.83417969 7.29296875 2.22265625 C8.53240234 2.59583984 9.77183594 2.96902344 11.04882812 3.35351562 C20.11077822 6.10031098 20.11077822 6.10031098 22.48046875 7.28515625 C22.48046875 7.94515625 22.48046875 8.60515625 22.48046875 9.28515625 C20.50046875 10.27515625 20.50046875 10.27515625 18.48046875 11.28515625 C18.48046875 10.29515625 18.48046875 9.30515625 18.48046875 8.28515625 C10.0823443 5.42865134 1.93887101 3.09920025 -6.84765625 1.75 C-9.51953125 1.28515625 -9.51953125 1.28515625 -12.51953125 0.28515625 C-15.66973486 1.16834919 -15.66973486 1.16834919 -18.51953125 2.28515625 C-19.17953125 1.62515625 -19.83953125 0.96515625 -20.51953125 0.28515625 C-13.27933109 -2.07899074 -7.40276925 -2.24999637 0 0 Z " fill="#4ABDF2" transform="translate(42.51953125,1.71484375)"/>
<path d="M0 0 C7.08703739 0.54515672 13.32796106 2.60918605 20 5 C20 5.66 20 6.32 20 7 C18.02 7.99 18.02 7.99 16 9 C16 8.01 16 7.02 16 6 C10.69905784 4.19695845 5.39691512 2.49276376 0 1 C0 0.67 0 0.34 0 0 Z " fill="#3BA9F5" transform="translate(45,4)"/>
<path d="M0 0 C-1.7015625 0.7425 -1.7015625 0.7425 -3.4375 1.5 C-5.8194007 2.82541249 -6.8085916 3.430125 -7.6875 6.046875 C-8.00182131 8.50160806 -8.00182131 8.50160806 -8 12 C-10 10 -10 10 -10.1953125 8.0546875 C-10.13020833 6.03645833 -10.06510417 4.01822917 -10 2 C-8.71211992 1.46987262 -7.41953322 0.9511671 -6.125 0.4375 C-5.40570312 0.14746094 -4.68640625 -0.14257812 -3.9453125 -0.44140625 C-2 -1 -2 -1 0 0 Z " fill="#59DBC7" transform="translate(10,7)"/>
<path d="M0 0 C0.66 0.33 1.32 0.66 2 1 C-2.625 6.875 -2.625 6.875 -6 8 C-4.55746343 4.63408134 -2.66735273 2.48952921 0 0 Z " fill="#8C18DB" transform="translate(50,58)"/>
<path d="M0 0 C0.99 0 1.98 0 3 0 C3.33 0.99 3.66 1.98 4 3 C5.99665314 4.68538601 5.99665314 4.68538601 8 6 C7.67 6.99 7.34 7.98 7 9 C5.83037314 7.69013727 4.66437056 6.3770374 3.5 5.0625 C2.8503125 4.33160156 2.200625 3.60070313 1.53125 2.84765625 C0 1 0 1 0 0 Z " fill="#E88BF2" transform="translate(11,56)"/>
</svg>
